/* XPM */
static char * bitcoin32_xpm[] = {
"32 32 102 2",
"  	c None",
". 	c #008080",
"+ 	c #007F7F",
"@ 	c #007E7E",
"# 	c #78BABA",
"$ 	c #8FC7C7",
"% 	c #88C4C4",
"& 	c #91C9C9",
"* 	c #007777",
"= 	c #007474",
"- 	c #77B9B9",
"; 	c #FFFFFF",
"> 	c #F8FBFB",
", 	c #E9F3F3",
"' 	c #F4FAFA",
") 	c #DAECEC",
"! 	c #F3F9F9",
"~ 	c #007676",
"{ 	c #9BCCCC",
"] 	c #C3E1E1",
"^ 	c #329797",
"/ 	c #007979",
"( 	c #8FC4C4",
"_ 	c #2F9494",
": 	c #008181",
"< 	c #FBFEFE",
"[ 	c #85C3C3",
"} 	c #007D7D",
"| 	c #A0CDCD",
"1 	c #F0F8F8",
"2 	c #B1D7D7",
"3 	c #007B7B",
"4 	c #239191",
"5 	c #F1F9F9",
"6 	c #018080",
"7 	c #409D9D",
"8 	c #F5FAFA",
"9 	c #007575",
"0 	c #399A9A",
"a 	c #8FC5C5",
"b 	c #047B7B",
"c 	c #FCFEFE",
"d 	c #007A7A",
"e 	c #359797",
"f 	c #ADD5D5",
"g 	c #84BFBF",
"h 	c #71B2B2",
"i 	c #037E7E",
"j 	c #0E8484",
"k 	c #3E9E9E",
"l 	c #208F8F",
"m 	c #8CC2C2",
"n 	c #A1CFCF",
"o 	c #299393",
"p 	c #3B9C9C",
"q 	c #2F9797",
"r 	c #1F8E8E",
"s 	c #44A1A1",
"t 	c #65AEAE",
"u 	c #007373",
"v 	c #2A9494",
"w 	c #3A9C9C",
"x 	c #007C7C",
"y 	c #BBDCDC",
"z 	c #B4D9D9",
"A 	c #409E9E",
"B 	c #239090",
"C 	c #82BDBD",
"D 	c #73B5B5",
"E 	c #229090",
"F 	c #6AB1B1",
"G 	c #BDDEDE",
"H 	c #CDE5E5",
"I 	c #49A3A3",
"J 	c #4DA5A5",
"K 	c #158989",
"L 	c #64AFAF",
"M 	c #69B1B1",
"N 	c #399C9C",
"O 	c #D9ECEC",
"P 	c #E6F3F3",
"Q 	c #007878",
"R 	c #007272",
"S 	c #9BCECE",
"T 	c #75B5B5",
"U 	c #399999",
"V 	c #128686",
"W 	c #DBEDED",
"X 	c #FAFCFC",
"Y 	c #1C8989",
"Z 	c #178B8B",
"` 	c #94C8C8",
" .	c #BFDEDE",
"..	c #81BDBD",
"+.	c #A5D2D2",
"@.	c #9CCBCB",
"#.	c #018181",
"$.	c #54A6A6",
"%.	c #5EACAC",
"&.	c #5CABAB",
"*.	c #54A8A8",
"=.	c #2D9595",
"                        . . . . . . . .                         ",
"                  . . . . . . . . . . . . . .                   ",
"              . . . . . . . . . . . . . . . . . .               ",
"            . . . . . . . . . . . . . . . . . . . .             ",
"          . . . . . . . . . . . . . . . . . . . . . .           ",
"        . . . . . . . . . . . . . . . . . . . . . . . .         ",
"      . . . . . . . . . . . . . . . . . . + . . . . . . .       ",
"    . . . . . . . @ # $ % % % % % % % % % & * . . . . . . .     ",
"    . . . . . . . . = - ; ; ; ; > , ' ; ) ! ~ . . . . . . .     ",
"  . . . . . . . . . + { ; ] ^ = ~ / = ( ; _ : . . . . . . . .   ",
"  . . . . . . . . . = < ; [ . . . . } | 1 2 3 . . . . . . . .   ",
"  . . . . . . . . . 4 2 5 [ . . . 6 7 8 9 ; 0 . . . . . . . .   ",
". . . . . . . . . . a b c [ . . . d ; e @ f 2 @ . . . . . . . . ",
". . . . . . . . . . / * c [ . . . g 2 } : h ; = . . . . . . . . ",
". . . . . . . . . . . ~ c [ . . i ; j . . k ; l . . . . . . . . ",
". . . . . . . . . . . ~ c [ . . m n + . . o ; p . . . . . . . . ",
". . . . . . . . . . . ~ c [ . / ; q . . . r ; s . . . . . . . . ",
". . . . . . . . . . . ~ c [ . t ; u . . . v ; w . . . . . . . . ",
". . . . . . . . . . . ~ c [ x y z } . . . A ; B . . . . . . . . ",
". . . . . . . . . . . ~ c [ u ; C . . . : D ; ~ . . . . . . . . ",
"  . . . . . . . . . . ~ c [ E ; F . . . x G H x . . . . . . .   ",
"  . . . . . . . . . . ~ c [ I ; J . . . K ; L . . . . . . . .   ",
"  . . . . . . . . . . ~ c [ M ; N . . 3 O P Q . . . . . . . .   ",
"    . . . . . . . . . R ; S T ; U + V W X Y . . . . . . . .     ",
"    . . . . . . . . Z ` ; ;  .; ..+.; @.+ #.. . . . . . . .     ",
"      . . . . . . + $.%.&.&.&.&.*.=.9 + . . . . . . . . .       ",
"        . . . . . . . . . . . . . . . . . . . . . . . .         ",
"          . . . . . . . . . . . . . . . . . . . . . .           ",
"            . . . . . . . . . . . . . . . . . . . .             ",
"              . . . . . . . . . . . . . . . . . .               ",
"                  . . . . . . . . . . . . . .                   ",
"                        . . . . . . . .                         "};
