/* XPM */
static char * bitcoin64_xpm[] = {
"64 64 166 2",
"  	c None",
". 	c #008080",
"+ 	c #0A8484",
"@ 	c #0F8888",
"# 	c #108888",
"$ 	c #118888",
"% 	c #007F7F",
"& 	c #008181",
"* 	c #80B9B9",
"= 	c #FFFFFF",
"- 	c #007171",
"; 	c #007C7C",
"> 	c #007373",
", 	c #3E9C9C",
"' 	c #F0F8F8",
") 	c #007B7B",
"! 	c #D0E7E7",
"~ 	c #E4F2F2",
"{ 	c #C9E3E3",
"] 	c #C0DEDE",
"^ 	c #B9DADA",
"/ 	c #B4D9D9",
"( 	c #EBF5F5",
"_ 	c #D4E9E9",
": 	c #80BEBE",
"< 	c #037F7F",
"[ 	c #FEFFFF",
"} 	c #9ACCCC",
"| 	c #54A7A7",
"1 	c #0C8686",
"2 	c #007272",
"3 	c #007979",
"4 	c #007D7D",
"5 	c #007A7A",
"6 	c #B1D6D6",
"7 	c #E9F3F3",
"8 	c #D7EBEB",
"9 	c #007777",
"0 	c #61ADAD",
"a 	c #048080",
"b 	c #92C6C6",
"c 	c #359797",
"d 	c #018181",
"e 	c #007E7E",
"f 	c #A7D3D3",
"g 	c #0A8686",
"h 	c #DAEDED",
"i 	c #EEF7F7",
"j 	c #007575",
"k 	c #96C8C8",
"l 	c #B8DCDC",
"m 	c #E9F4F4",
"n 	c #B2D8D8",
"o 	c #339999",
"p 	c #B5DADA",
"q 	c #D0E8E8",
"r 	c #369898",
"s 	c #0F8484",
"t 	c #53A7A7",
"u 	c #389999",
"v 	c #89C1C1",
"w 	c #017C7C",
"x 	c #DEEFEF",
"y 	c #F3F9F9",
"z 	c #6BB4B4",
"A 	c #F4FAFA",
"B 	c #DEEEEE",
"C 	c #87C0C0",
"D 	c #95C8C8",
"E 	c #DDEFEF",
"F 	c #82BEBE",
"G 	c #219090",
"H 	c #018080",
"I 	c #1C8C8C",
"J 	c #269090",
"K 	c #289494",
"L 	c #90C5C5",
"M 	c #007878",
"N 	c #C9E4E4",
"O 	c #A4CFCF",
"P 	c #E6F2F2",
"Q 	c #47A1A1",
"R 	c #CBE4E4",
"S 	c #007676",
"T 	c #E3F2F2",
"U 	c #7EBCBC",
"V 	c #99CDCD",
"W 	c #3B9C9C",
"X 	c #7FBBBB",
"Y 	c #6BB2B2",
"Z 	c #7CBCBC",
"` 	c #6FB3B3",
" .	c #80BBBB",
"..	c #5CACAC",
"+.	c #8AC5C5",
"@.	c #C4E2E2",
"#.	c #9FCFCF",
"$.	c #54A8A8",
"%.	c #95CACA",
"&.	c #1A8D8D",
"*.	c #44A0A0",
"=.	c #93C9C9",
"-.	c #9ACACA",
";.	c #5EADAD",
">.	c #87C4C4",
",.	c #BBDDDD",
"'.	c #72B5B5",
").	c #80BABA",
"!.	c #43A0A0",
"~.	c #7ABABA",
"{.	c #6EB3B3",
"].	c #92C7C7",
"^.	c #43A1A1",
"/.	c #A2D1D1",
"(.	c #E4F1F1",
"_.	c #0E8787",
":.	c #D6EAEA",
"<.	c #007474",
"[.	c #3C9D9D",
"}.	c #AED6D6",
"|.	c #74B5B5",
"1.	c #9BCCCC",
"2.	c #63AEAE",
"3.	c #B1D7D7",
"4.	c #B5D9D9",
"5.	c #9ACDCD",
"6.	c #97C9C9",
"7.	c #97C8C8",
"8.	c #CCE5E5",
"9.	c #88C4C4",
"0.	c #2E9595",
"a.	c #038080",
"b.	c #0A8585",
"c.	c #E2F0F0",
"d.	c #7FBDBD",
"e.	c #228D8D",
"f.	c #57ABAB",
"g.	c #E7F3F3",
"h.	c #178B8B",
"i.	c #359999",
"j.	c #AAD3D3",
"k.	c #5EAEAE",
"l.	c #F6FAFA",
"m.	c #8FC5C5",
"n.	c #9DCCCC",
"o.	c #89C2C2",
"p.	c #2A9191",
"q.	c #E1F0F0",
"r.	c #75B5B5",
"s.	c #058080",
"t.	c #6EB6B6",
"u.	c #FAFCFC",
"v.	c #F8FBFB",
"w.	c #46A2A2",
"x.	c #208F8F",
"y.	c #5AAAAA",
"z.	c #B0D8D8",
"A.	c #C5E1E1",
"B.	c #E0F0F0",
"C.	c #66B2B2",
"D.	c #67ADAD",
"E.	c #C4E0E0",
"F.	c #B7DADA",
"G.	c #80BDBD",
"H.	c #52A8A8",
"I.	c #068282",
"                                                    . . . . . . . . . . . .                                                     ",
"                                            . . . . . . . . . . . . . . . . . . . .                                             ",
"                                        . . . . . . . . . . . . . . . . . . . . . . . .                                         ",
"                                  . . . . . . . . . . . . . . . . . . . . . . . . . . . . . .                                   ",
"                                . . . . . . . . . . . . . . . . . . . . . . . . . . . . . . . .                                 ",
"                            . . . . . . . . . . . . . . . . . . . . . . . . . . . . . . . . . . . .                             ",
"                          . . . . . . . . . . . . . . . . . . . . . . . . . . . . . . . . . . . . . .                           ",
"                      . . . . . . . . . . . . . . . . . . . . . . . . . . . . . . . . . . . . . . . . . .                       ",
"                    . . . . . . . . . . . . . . . . . . . . . . . . . . . . . . . . . . . . . . . . . . . .                     ",
"                  . . . . . . . . . . . . . . . . . . . . . . . . . . . . . . . . . . . . . . . . . . . . . .                   ",
"                . . . . . . . . . . . . . . . . . . . . . . . . . . . . . . . . . . . . . . . . . . . . . . . .                 ",
"              . . . . . . . . . . . . . . . . . . . . . . . . . . . . . . . . . . . . . . . . . . . . . . . . . .               ",
"              . . . . . . . . . . . . . . . . . . . . . . . . . . . . . . . . . . . . . . . . . . . . . . . . . .               ",
"            . . . . . . . . . . . . . . . . . . . . . . . . . . . . . . . . . . . . . . . . . . . . . . . . . . . .             ",
"          . . . . . . . . . . . . . . . + @ # # # # # # # # # # # # # # # # # # # # # $ % . . . . . . . . . . . . . .           ",
"          . . . . . . . . . . . . . . & * = = = = = = = = = = = = = = = = = = = = = = = - . . . . . . . . . . . . . .           ",
"        . . . . . . . . . . . . . . . . ; > , ' = = = = = = = = = = = = = = = = = = = = - . . . . . . . . . . . . . . .         ",
"      . . . . . . . . . . . . . . . . . . . ) ! = = = = = = = = ~ { ] ^ / ( = = / _ = : . . . . . . . . . . . . . . . . .       ",
"      . . . . . . . . . . . . . . . . . . . < = = = [ = } | 1 2 3 ; 4 4 4 5 6 = 7 = 8 9 . . . . . . . . . . . . . . . . .       ",
"      . . . . . . . . . . . . . . . . . . . 0 = = = = a % . . . . . . . . . 3 b = = c d . . . . . . . . . . . . . . . . .       ",
"    . . . . . . . . . . . . . . . . . . . e f = = = = g . . . . . . . . . . 3 h = [ i 4 . . . . . . . . . . . . . . . . . .     ",
"    . . . . . . . . . . . . . . . . . . . j = = = = = g . . . . . . . . . e k = l m [ n ; . . . . . . . . . . . . . . . . .     ",
"  . . . . . . . . . . . . . . . . . . . . o = p q = = g . . . . . . . . d r = = s t = = u . . . . . . . . . . . . . . . . . .   ",
"  . . . . . . . . . . . . . . . . . . . . v = w x = = g . . . . . . . . 5 y = z . j A = q 3 . . . . . . . . . . . . . . . . .   ",
"  . . . . . . . . . . . . . . . . . . . 3 B C 3 x = = g . . . . . . . % D = E 9 . . F = = G . . . . . . . . . . . . . . . . .   ",
"  . . . . . . . . . . . . . . . . . . . H = ) 5 x = = g . . . . . . . I = = J . . . K = = L . . . . . . . . . . . . . . . . .   ",
". . . . . . . . . . . . . . . . . . . . . 9 . 5 x = = g . . . . . . M N [ O e . . . > = = P 3 . . . . . . . . . . . . . . . . . ",
". . . . . . . . . . . . . . . . . . . . . . . 5 x = = g . . . . . . Q = = < . . . . ) R = = e . . . . . . . . . . . . . . . . . ",
". . . . . . . . . . . . . . . . . . . . . . . 5 x = = g . . . . . S T = U . . . . . % V = = W . . . . . . . . . . . . . . . . . ",
". . . . . . . . . . . . . . . . . . . . . . . 5 x = = g . . . . . t = = 5 . . . . . & X = = Y . . . . . . . . . . . . . . . . . ",
". . . . . . . . . . . . . . . . . . . . . . . 5 x = = g . . . . S T = Z . . . . . . . ` = =  .& . . . . . . . . . . . . . . . . ",
". . . . . . . . . . . . . . . . . . . . . . . 5 x = = g . . . . Q = = ; . . . . . . . ..= = +.% . . . . . . . . . . . . . . . . ",
". . . . . . . . . . . . . . . . . . . . . . . 5 x = = g . . . ) @.= #.% . . . . . . . $.= = %.% . . . . . . . . . . . . . . . . ",
". . . . . . . . . . . . . . . . . . . . . . . 5 x = = g . . . &.= = *.. . . . . . . . $.= = =.% . . . . . . . . . . . . . . . . ",
". . . . . . . . . . . . . . . . . . . . . . . 5 x = = g . . % -.= = j . . . . . . . . ;.= = >.. . . . . . . . . . . . . . . . . ",
". . . . . . . . . . . . . . . . . . . . . . . 5 x = = g . . S = = ,.4 . . . . . . . . '.= = ).& . . . . . . . . . . . . . . . . ",
". . . . . . . . . . . . . . . . . . . . . . . 5 x = = g . . !.= = ~.. . . . . . . . . X = = {.. . . . . . . . . . . . . . . . . ",
". . . . . . . . . . . . . . . . . . . . . . . 5 x = = g . % ].= = ^.. . . . . . . . e /.= = !.. . . . . . . . . . . . . . . . . ",
"  . . . . . . . . . . . . . . . . . . . . . . 5 x = = g . 3 (.= = _.. . . . . . . . ) :.= = # . . . . . . . . . . . . . . . .   ",
"  . . . . . . . . . . . . . . . . . . . . . . 5 x = = g . ; = = = 2 . . . . . . . . S = = = <.. . . . . . . . . . . . . . . .   ",
"  . . . . . . . . . . . . . . . . . . . . . . 5 x = = g . [.= = m M . . . . . . . . !.= = }.e . . . . . . . . . . . . . . . .   ",
"  . . . . . . . . . . . . . . . . . . . . . . 5 x = = g & |.= = { ; . . . . . . . % 1.= = 2.. . . . . . . . . . . . . . . . .   ",
"    . . . . . . . . . . . . . . . . . . . . . 5 x = = g % +.= = 3.4 . . . . . . . 4 = = = 5 . . . . . . . . . . . . . . . .     ",
"    . . . . . . . . . . . . . . . . . . . . . 5 x = = g 4 4.= = 5.% . . . . . . % 6.= = 7.% . . . . . . . . . . . . . . . .     ",
"      . . . . . . . . . . . . . . . . . . . . 5 x = = g ; 8.= = 9.. . . . . . d 0.= = = a.. . . . . . . . . . . . . . . .       ",
"      . . . . . . . . . . . . . . . . . . . . 5 x = = b.3 c.= = d.. . . . . d e.= = = f.. . . . . . . . . . . . . . . . .       ",
"      . . . . . . . . . . . . . . . . . . . . 3 g.= = h.9 ' = = * & . . . % i.= = = j.5 . . . . . . . . . . . . . . . . .       ",
"        . . . . . . . . . . . . . . . . . . . 3 = = = k.9 l.= = * & . . 3 m.= = = n.M . . . . . . . . . . . . . . . . .         ",
"          . . . . . . . . . . . . . . . . . ) o.= = = = p.q.= = r.5 s.t.u.= = v.w.; . . . . . . . . . . . . . . . . .           ",
"          . . . . . . . . . . . . . . . x.y.z.= = = = = = = = = A.B.= = = h C.3 H . . . . . . . . . . . . . . . . . .           ",
"            . . . . . . . . . . . . . & D.E.] ] ] ] ] ] ] ] ] ] F.#.G.H.I.3 . . . . . . . . . . . . . . . . . . . .             ",
"              . . . . . . . . . . . . . e 4 4 4 4 4 4 4 4 4 4 4 4 e . . . . . . . . . . . . . . . . . . . . . . .               ",
"              . . . . . . . . . . . . . . . . . . . . . . . . . . . . . . . . . . . . . . . . . . . . . . . . . .               ",
"                . . . . . . . . . . . . . . . . . . . . . . . . . . . . . . . . . . . . . . . . . . . . . . . .                 ",
"                  . . . . . . . . . . . . . . . . . . . . . . . . . . . . . . . . . . . . . . . . . . . . . .                   ",
"                    . . . . . . . . . . . . . . . . . . . . . . . . . . . . . . . . . . . . . . . . . . . .                     ",
"                      . . . . . . . . . . . . . . . . . . . . . . . . . . . . . . . . . . . . . . . . . .                       ",
"                          . . . . . . . . . . . . . . . . . . . . . . . . . . . . . . . . . . . . . .                           ",
"                            . . . . . . . . . . . . . . . . . . . . . . . . . . . . . . . . . . . .                             ",
"                                . . . . . . . . . . . . . . . . . . . . . . . . . . . . . . . .                                 ",
"                                  . . . . . . . . . . . . . . . . . . . . . . . . . . . . . .                                   ",
"                                        . . . . . . . . . . . . . . . . . . . . . . . .                                         ",
"                                            . . . . . . . . . . . . . . . . . . . .                                             ",
"                                                    . . . . . . . . . . . .                                                     "};
