/* XPM */
static char * bitcoin16_xpm[] = {
"16 16 63 1",
" 	c None",
".	c #008080",
"+	c #007D7D",
"@	c #4BA5A5",
"#	c #3C9E9E",
"$	c #3D9E9E",
"%	c #3E9F9F",
"&	c #45A3A3",
"*	c #007B7B",
"=	c #008181",
"-	c #349595",
";	c #FFFFFF",
">	c #91C4C4",
",	c #7EBABA",
"'	c #A5CECE",
")	c #CCE5E5",
"!	c #007979",
"~	c #78B8B8",
"{	c #C6E3E3",
"]	c #007C7C",
"^	c #7DBDBD",
"/	c #B5D7D7",
"(	c #007E7E",
"_	c #178484",
":	c #DAEEEE",
"<	c #128686",
"[	c #8AC3C3",
"}	c #409E9E",
"|	c #74B5B5",
"1	c #007373",
"2	c #D9EDED",
"3	c #007A7A",
"4	c #A2CECE",
"5	c #007777",
"6	c #0C8585",
"7	c #A7D3D3",
"8	c #007F7F",
"9	c #007272",
"0	c #9DCACA",
"a	c #038181",
"b	c #B2D8D8",
"c	c #D9EEEE",
"d	c #6CB0B0",
"e	c #47A2A2",
"f	c #208F8F",
"g	c #95C7C7",
"h	c #D5ECEC",
"i	c #A0CFCF",
"j	c #239090",
"k	c #76B9B9",
"l	c #49A3A3",
"m	c #006E6E",
"n	c #D6ECEC",
"o	c #C1DDDD",
"p	c #078282",
"q	c #2D9494",
"r	c #D5E9E9",
"s	c #007878",
"t	c #63AFAF",
"u	c #BBDCDC",
"v	c #A7D2D2",
"w	c #70B6B6",
"x	c #73B5B5",
"     ......     ",
"   ..........   ",
"  ............  ",
" ...+@#$%$&*... ",
" ...=-;>,')!... ",
".....~{].^/+....",
"....(_:]<[}|=...",
".....12345678...",
".....92+0.ab(...",
".....9cde.fg....",
".....9hij.kl....",
" ....mnopqrs... ",
" ...(tuvwx!.... ",
"  ...+++(=....  ",
"   ..........   ",
"     ......     "};
